<svg width="32" height="32" viewBox="0 0 32 32" fill="none" xmlns="http://www.w3.org/2000/svg">
  <defs>
    <linearGradient id="donationGradient" x1="0%" y1="0%" x2="100%" y2="100%">
      <stop offset="0%" style="stop-color:#f97316;stop-opacity:1" />
      <stop offset="100%" style="stop-color:#d946ef;stop-opacity:1" />
    </linearGradient>
    <linearGradient id="heartGradient" x1="0%" y1="0%" x2="100%" y2="100%">
      <stop offset="0%" style="stop-color:#ffffff;stop-opacity:1" />
      <stop offset="100%" style="stop-color:#fef3c7;stop-opacity:1" />
    </linearGradient>
  </defs>

  <!-- Background circle -->
  <circle cx="16" cy="16" r="15" fill="url(#donationGradient)" stroke="#ffffff" stroke-width="1"/>

  <!-- Donation hands and heart icon -->
  <g transform="translate(4, 4) scale(1)">
    <!-- Person/giver at top -->
    <circle cx="12" cy="4" r="2" fill="white" opacity="0.9"/>

    <!-- Heart in center -->
    <path d="M12 10c-1.5 0-2.7 1.2-2.7 2.7c0 2 2.7 4.8 2.7 4.8s2.7-2.8 2.7-4.8c0-1.5-1.2-2.7-2.7-2.7z"
          fill="url(#heartGradient)" stroke="white" stroke-width="0.5"/>

    <!-- Left giving hand -->
    <path d="M6 12c-1.1 0-2 0.9-2 2v4c0 1.1 0.9 2 2 2h2v-8h-2z"
          fill="white" opacity="0.8"/>

    <!-- Right giving hand -->
    <path d="M18 12c1.1 0 2 0.9 2 2v4c0 1.1-0.9 2-2 2h-2v-8h2z"
          fill="white" opacity="0.8"/>

    <!-- Connection/flow lines -->
    <path d="M8 14h2m4 0h2" stroke="white" stroke-width="1" stroke-linecap="round" opacity="0.7"/>

    <!-- Small impact dots -->
    <circle cx="6" cy="8" r="0.8" fill="white" opacity="0.6"/>
    <circle cx="18" cy="8" r="0.8" fill="white" opacity="0.6"/>
    <circle cx="12" cy="20" r="1" fill="white" opacity="0.8"/>
  </g>
</svg>
